<?xml version="1.0" encoding="UTF-8"?>
<svg version="1.1" xmlns="http://www.w3.org/2000/svg" width="500" height="500">
<path d="M0 0 C165 0 330 0 500 0 C500 165 500 330 500 500 C335 500 170 500 0 500 C0 335 0 170 0 0 Z " fill="#FEFEFE" transform="translate(0,0)"/>
<path d="M0 0 C4.10440571 -0.51305071 6.66404516 -0.79057362 10.27734375 1.34765625 C13.74930407 4.20433247 15.72505476 6.05487573 17 10.4375 C17 11.283125 17 12.12875 17 13 C17.66 13 18.32 13 19 13 C19.33 14.98 19.66 16.96 20 19 C20.66 19 21.32 19 22 19 C24.04169485 21.90548882 25 23.40142046 25 27 C25.99 27.33 26.98 27.66 28 28 C29.10327148 29.74658203 29.10327148 29.74658203 30.12109375 32.0078125 C30.49943359 32.83023438 30.87777344 33.65265625 31.26757812 34.5 C31.84668945 35.799375 31.84668945 35.799375 32.4375 37.125 C35.06444825 42.91934791 37.74806272 48.52837939 41 54 C46.56765126 63.37946641 46.56765126 63.37946641 47 69 C47.66 69 48.32 69 49 69 C49 69.66 49 70.32 49 71 C49.66 71 50.32 71 51 71 C54 76.75 54 76.75 54 79 C54.66 79 55.32 79 56 79 C57.31495542 81.60295276 58.62704986 84.20728033 59.9375 86.8125 C60.31068359 87.55048828 60.68386719 88.28847656 61.06835938 89.04882812 C61.60493164 90.11713867 61.60493164 90.11713867 62.15234375 91.20703125 C62.48226318 91.8616333 62.81218262 92.51623535 63.15209961 93.19067383 C64 95 64 95 65 98 C65.66 98 66.32 98 67 98 C68.72895428 100.97380135 69.96369088 103.21935391 70.125 106.6875 C68.68674905 109.64390473 66.9417629 110.27685894 63.921875 111.375 C62.97054687 111.684375 62.97054687 111.684375 62 112 C60.865625 112.391875 59.73125 112.78375 58.5625 113.1875 C57.716875 113.455625 56.87125 113.72375 56 114 C56 114.66 56 115.32 56 116 C53.625 116.125 53.625 116.125 51 116 C48.77174356 113.77174356 48.30760631 112.34238372 47.375 109.375 C47.11460937 108.55773437 46.85421875 107.74046875 46.5859375 106.8984375 C46.39257812 106.27195312 46.19921875 105.64546875 46 105 C45.34 105 44.68 105 44 105 C43.443125 103.576875 43.443125 103.576875 42.875 102.125 C41.07309896 97.86833522 38.66474621 94.04155542 36.20703125 90.13671875 C35 88 35 88 35 86 C34.34 86 33.68 86 33 86 C33 85.34 33 84.68 33 84 C32.34 84 31.68 84 31 84 C26.59225513 73.62642369 26.59225513 73.62642369 26 68 C25.34 68 24.68 68 24 68 C22.65869239 65.73354942 21.32683766 63.46239903 20 61.1875 C19.6184375 60.54490234 19.236875 59.90230469 18.84375 59.24023438 C16 54.33984375 16 54.33984375 16 51 C15.34 51 14.68 51 14 51 C14 50.34 14 49.68 14 49 C13.34 49 12.68 49 12 49 C11.82984375 48.34773438 11.6596875 47.69546875 11.484375 47.0234375 C9.97905372 41.59467245 8.29632629 37.54665695 5 33 C5 32.34 5 31.68 5 31 C3.02 31.495 3.02 31.495 1 32 C0.67 33.98 0.34 35.96 0 38 C-0.66 38 -1.32 38 -2 38 C-2.11988281 38.5671875 -2.23976562 39.134375 -2.36328125 39.71875 C-3.05097548 42.18263606 -4.01660184 44.22641133 -5.1875 46.5 C-5.84878906 47.79550781 -5.84878906 47.79550781 -6.5234375 49.1171875 C-7.01070312 50.06851563 -7.49796875 51.01984375 -8 52 C-9.10624363 54.20729363 -10.21042307 56.41562303 -11.3125 58.625 C-12.20833333 60.41666667 -13.10416667 62.20833333 -14 64 C-14.66 64 -15.32 64 -16 64 C-16 64.99 -16 65.98 -16 67 C-16.66 67 -17.32 67 -18 67 C-18.19142578 67.85658203 -18.19142578 67.85658203 -18.38671875 68.73046875 C-20.14828972 75.24940334 -23.56455057 81.23335275 -27 87 C-27.66 87 -28.32 87 -29 87 C-29 87.99 -29 88.98 -29 90 C-29.66 90 -30.32 90 -31 90 C-31.37125 91.175625 -31.37125 91.175625 -31.75 92.375 C-33.33953592 96.98465417 -35.16733964 101.48277856 -37 106 C-37.66746576 107.66634681 -38.33435815 109.33292377 -39 111 C-39.66 111 -40.32 111 -41 111 C-41.26941406 111.69996094 -41.53882813 112.39992188 -41.81640625 113.12109375 C-43.07083906 116.17230491 -44.46967581 119.10817702 -45.9375 122.0625 C-46.69353516 123.59583984 -46.69353516 123.59583984 -47.46484375 125.16015625 C-48.81935355 127.66582704 -50.11958478 129.86339742 -52 132 C-52.66 132 -53.32 132 -54 132 C-54.1546875 133.3921875 -54.1546875 133.3921875 -54.3125 134.8125 C-55.03244329 138.1504189 -55.54453438 138.85146758 -58 141 C-58.33 141.99 -58.66 142.98 -59 144 C-59.66 144 -60.32 144 -61 144 C-61.12955078 145.25876953 -61.12955078 145.25876953 -61.26171875 146.54296875 C-62.1214919 150.56889065 -63.80316228 153.77213035 -65.8125 157.3125 C-66.54013689 158.63150429 -67.26540968 159.95181559 -67.98828125 161.2734375 C-68.50962646 162.22621582 -68.50962646 162.22621582 -69.04150391 163.19824219 C-70.90958642 166.70981859 -72.45752703 170.3366267 -74 174 C-74.66 174 -75.32 174 -76 174 C-77.07525194 176.65228812 -78.09456151 179.28368454 -79 182 C-75.56102661 181.97722534 -72.1253887 181.89996096 -68.6875 181.8125 C-67.71103516 181.80669922 -66.73457031 181.80089844 -65.72851562 181.79492188 C-63.06342284 181.71249633 -60.60353122 181.57853056 -58 181 C-54.89457155 177.5701238 -54.13383645 173.44812759 -53 169 C-52.34 169 -51.68 169 -51 169 C-49.57301693 166.16859487 -48.19157767 163.31933564 -46.8359375 160.453125 C-46.43632812 159.60878906 -46.03671875 158.76445312 -45.625 157.89453125 C-45.2125 157.02183594 -44.8 156.14914063 -44.375 155.25 C-43.74464844 153.91775391 -43.74464844 153.91775391 -43.1015625 152.55859375 C-42.06731921 150.37257953 -41.03347863 148.18637581 -40 146 C-39.34 146 -38.68 146 -38 146 C-37.01 143.03 -36.02 140.06 -35 137 C-34.34 137 -33.68 137 -33 137 C-32.6596875 135.8553125 -32.6596875 135.8553125 -32.3125 134.6875 C-31.16752295 131.47065971 -29.95531183 128.33112919 -28.625 125.1875 C-28.22539062 124.23230469 -27.82578125 123.27710938 -27.4140625 122.29296875 C-26 120 -26 120 -23.8359375 119.17578125 C-23.23007813 119.11777344 -22.62421875 119.05976563 -22 119 C-21.88398438 118.46117187 -21.76796875 117.92234375 -21.6484375 117.3671875 C-19.71750841 110.3181331 -16.40764788 103.45659597 -13 97 C-12.34 97 -11.68 97 -11 97 C-10.8453125 96.2265625 -10.8453125 96.2265625 -10.6875 95.4375 C-9.44235285 91.02288739 -8.31491684 87.16464063 -4.8125 84.0625 C-1.0961731 82.65855428 2.07880229 82.26477543 6 83 C9 84.875 9 84.875 11 87 C11 87.66 11 88.32 11 89 C11.60328125 89.09152344 12.2065625 89.18304688 12.828125 89.27734375 C18.18299777 91.05909099 20.71206357 98.36529899 23.09375 103.12109375 C24.17417342 105.29923321 25.24127016 107.48161498 26.28417969 109.67797852 C27.89527051 113.50443033 27.89527051 113.50443033 31 116 C31.78125 117.92578125 31.78125 117.92578125 32.5 120.3125 C33.22933653 122.71059022 33.93686287 124.87846103 35.09375 127.10546875 C36 129 36 129 36 132 C36.66 132 37.32 132 38 132 C38.84114171 133.43294498 39.67265687 134.87154405 40.5 136.3125 C40.9640625 137.11300781 41.428125 137.91351563 41.90625 138.73828125 C43 141 43 141 43 144 C43.66 144 44.32 144 45 144 C45.50789062 145.11117187 46.01578125 146.22234375 46.5390625 147.3671875 C51.5705524 158.28457381 51.5705524 158.28457381 57.67578125 168.62890625 C59.50206742 171.89898207 60.68486964 175.49298572 62 179 C71.24 179.33 80.48 179.66 90 180 C89.67 178.35 89.34 176.7 89 175 C88.34 175 87.68 175 87 175 C87 173.68 87 172.36 87 171 C88.85296835 170.51622009 90.70744441 170.03821364 92.5625 169.5625 C93.59503906 169.29566406 94.62757813 169.02882812 95.69140625 168.75390625 C99.11530243 167.97372684 102.51893525 167.45214334 106 167 C106.70576172 168.33804688 106.70576172 168.33804688 107.42578125 169.703125 C108.05451027 170.88551092 108.68342643 172.06779735 109.3125 173.25 C109.92738281 174.41015625 110.54226563 175.5703125 111.17578125 176.765625 C112.85243821 179.92095928 112.85243821 179.92095928 114.73046875 182.234375 C116 184 116 184 116 187 C116.66 187 117.32 187 118 187 C118.67057887 188.7902061 119.3363469 190.58221489 120 192.375 C120.37125 193.37273437 120.7425 194.37046875 121.125 195.3984375 C122 198 122 198 122 200 C122.66 200 123.32 200 124 200 C124.24234375 200.65226563 124.4846875 201.30453125 124.734375 201.9765625 C127.00904587 207.95450431 127.00904587 207.95450431 130.25 213.4375 C132 216 132 216 132 219 C132.66 219 133.32 219 134 219 C134.25523437 219.85271484 134.25523437 219.85271484 134.515625 220.72265625 C136.15765737 225.95445086 138.19691693 230.2980542 141 235 C141.37125 235.94875 141.7425 236.8975 142.125 237.875 C142.79931699 240.17331714 142.79931699 240.17331714 145 241 C145.9296875 242.96875 145.9296875 242.96875 146.875 245.5 C150.19928072 254.14312986 153.76396484 262.9148019 158.75 270.75 C160 273 160 273 160 277 C160.66 277 161.32 277 162 277 C164.61588503 280.55760365 165.49357808 283.64477147 166 288 C166.66 288 167.32 288 168 288 C168 288.66 168 289.32 168 290 C168.66 290 169.32 290 170 290 C170 290.99 170 291.98 170 293 C170.66 293 171.32 293 172 293 C172.66 296.3 173.32 299.6 174 303 C174.66 303 175.32 303 176 303 C176.33 304.98 176.66 306.96 177 309 C177.66 309 178.32 309 179 309 C179 310.32 179 311.64 179 313 C179.66 313 180.32 313 181 313 C193 333.21359223 193 333.21359223 193 339 C193.66 339 194.32 339 195 339 C197.04169485 341.90548882 198 343.40142046 198 347 C198.66 347 199.32 347 200 347 C200 347.99 200 348.98 200 350 C200.66 350 201.32 350 202 350 C202.33 351.65 202.66 353.3 203 355 C203.66 355 204.32 355 205 355 C205.33 357.64 205.66 360.28 206 363 C121.21667636 363.13335221 36.43292009 363.04843112 -56.64953423 362.76267529 C-59.41359322 362.7539405 -62.17765229 362.7452324 -64.94171143 362.73654175 C-65.62478543 362.73438654 -66.30785942 362.73223133 -67.01163264 362.73001081 C-77.38508503 362.69749857 -87.75853485 362.67344584 -98.13201904 362.65383911 C-110.05824363 362.63128348 -121.98438366 362.59796077 -133.91054404 362.55139875 C-140.08546721 362.52757622 -146.260308 362.50867529 -152.43527603 362.50236893 C-158.14141293 362.49636463 -163.84732888 362.4765536 -169.55338407 362.44572055 C-171.63329264 362.43692299 -173.71322996 362.43322611 -175.79315639 362.43499291 C-178.61834452 362.43663725 -181.44284977 362.42002928 -184.26794434 362.39872742 C-185.49784314 362.40599875 -185.49784314 362.40599875 -186.75258839 362.41341698 C-191.34633816 362.35596576 -194.30397959 361.78978318 -198 359 C-197.67 355.37 -197.34 351.74 -197 348 C-196.34 348 -195.68 348 -195 348 C-194.505 346.02 -194.505 346.02 -194 344 C-193.34 344 -192.68 344 -192 344 C-191.938125 342.948125 -191.87625 341.89625 -191.8125 340.8125 C-191 337 -191 337 -188.75 334.875 C-184.46962008 330.40005736 -182.99040818 324.78488844 -181 319 C-180.34 319 -179.68 319 -179 319 C-178.566875 317.824375 -178.566875 317.824375 -178.125 316.625 C-177 314 -177 314 -175 312 C-174.28591666 310.01643517 -173.61382258 308.01684563 -173 306 C-172.34 306 -171.68 306 -171 306 C-170.87625 305.071875 -170.7525 304.14375 -170.625 303.1875 C-170 300 -170 300 -168 297 C-167.61500109 295.34450469 -167.27206865 293.6777567 -167 292 C-166.34 292 -165.68 292 -165 292 C-164.89300781 291.46761719 -164.78601563 290.93523437 -164.67578125 290.38671875 C-163.81634616 287.35137287 -162.55501854 284.65486132 -161.1875 281.8125 C-160.43533203 280.21341797 -160.43533203 280.21341797 -159.66796875 278.58203125 C-158 276 -158 276 -156.13452148 275.28515625 C-152.53222551 274.80391621 -149.27295125 276.1085441 -145.875 277.1875 C-145.14667969 277.39697266 -144.41835937 277.60644531 -143.66796875 277.82226562 C-138.40926255 279.46014362 -138.40926255 279.46014362 -136.4453125 282.05078125 C-136 284 -136 284 -137 286 C-137.99 286 -138.98 286 -140 286 C-140.11085937 286.73476563 -140.22171875 287.46953125 -140.3359375 288.2265625 C-141.03139786 291.13113224 -141.99527032 292.89118738 -143.625 295.375 C-147.72733313 301.94669871 -150.82291162 308.95024768 -154 316 C-154.66 316 -155.32 316 -156 316 C-156.66 319.63 -157.32 323.26 -158 327 C-158.66 327 -159.32 327 -160 327 C-160 327.99 -160 328.98 -160 330 C-161.32 330.33 -162.64 330.66 -164 331 C-164.66 334.3 -165.32 337.6 -166 341 C-158.74 341 -151.48 341 -144 341 C-142.9469279 338.36731975 -141.8948382 335.73423395 -140.8515625 333.09765625 C-138.64442053 327.63603424 -136.45553866 322.76626022 -133 318 C-132.443125 316.8553125 -132.443125 316.8553125 -131.875 315.6875 C-131 314 -131 314 -129 313 C-127.74329889 310.5167345 -126.57451484 308.03757249 -125.4375 305.5 C-122.48847769 299.0812966 -119.41076645 292.75349056 -116.125 286.5 C-115.5535022 285.39688477 -115.5535022 285.39688477 -114.97045898 284.27148438 C-112.2412679 279.12063395 -112.2412679 279.12063395 -110 278 C-108.95772844 276.159331 -107.98956162 274.27630195 -107.0625 272.375 C-106.52882813 271.28316406 -105.99515625 270.19132812 -105.4453125 269.06640625 C-104.39012369 266.82769486 -103.37832788 264.59968502 -102.4375 262.3125 C-97.39759036 250.69879518 -97.39759036 250.69879518 -94 249 C-93.27840576 247.35636866 -92.60648579 245.68949614 -92 244 C-91.34 244 -90.68 244 -90 244 C-89.9175 243.154375 -89.835 242.30875 -89.75 241.4375 C-89.01578171 238.07233284 -87.82510802 235.70425322 -86.03515625 232.78515625 C-84.81432659 230.77260634 -84.81432659 230.77260634 -83.5625 227.5 C-82 224 -82 224 -79.75 220.9375 C-75.8533278 215.35817389 -73.04344982 209.08689964 -70 203 C-84.52 203 -99.04 203 -114 203 C-113.67 200.69 -113.34 198.38 -113 196 C-112.34 196 -111.68 196 -111 196 C-110.505 193.03 -110.505 193.03 -110 190 C-109.34 190 -108.68 190 -108 190 C-108 189.01 -108 188.02 -108 187 C-107.34 187 -106.68 187 -106 187 C-105.505 184.03 -105.505 184.03 -105 181 C-104.34 181 -103.68 181 -103 181 C-103 180.01 -103 179.02 -103 178 C-102.34 178 -101.68 178 -101 178 C-100.74863281 177.18660156 -100.49726563 176.37320313 -100.23828125 175.53515625 C-98.78241854 171.37882896 -97.03895378 167.42980618 -95.1875 163.4375 C-94.6915332 162.3247168 -94.6915332 162.3247168 -94.18554688 161.18945312 C-92.03949676 156.56370594 -89.72603948 153.55722216 -86 150 C-84.39024632 147.37624835 -84.39024632 147.37624835 -83.1875 144.6875 C-82.76855469 143.80449219 -82.34960938 142.92148438 -81.91796875 142.01171875 C-81.61503906 141.34785156 -81.31210938 140.68398437 -81 140 C-80.34 140 -79.68 140 -79 140 C-78.9071875 138.824375 -78.9071875 138.824375 -78.8125 137.625 C-77.69212037 132.62638318 -75.42047761 128.48708423 -73 124 C-72.43152344 122.92878906 -72.43152344 122.92878906 -71.8515625 121.8359375 C-69.28186969 117.14093484 -69.28186969 117.14093484 -67 116 C-66.26059767 113.89901533 -65.72421318 111.77429203 -65.171875 109.6171875 C-64.04054968 107.09056096 -62.99854105 105.78028196 -61.15625 103.76953125 C-57.64630169 99.84127694 -55.74320339 95.64801143 -53.75 90.8125 C-53.0786909 89.23543607 -52.40683464 87.65860493 -51.734375 86.08203125 C-51.44788086 85.39343018 -51.16138672 84.7048291 -50.86621094 83.99536133 C-49.09485586 79.91495404 -49.09485586 79.91495404 -48 78 C-45.875 77.25 -45.875 77.25 -44 77 C-43.95875 76.195625 -43.9175 75.39125 -43.875 74.5625 C-43.02389435 71.09728414 -42.14097613 69.53182276 -40.125 66.6875 C-37.46579427 62.92135217 -35.89706024 59.4646543 -34.640625 55.04296875 C-33.96507661 52.88862845 -33.05628877 50.99173095 -32 49 C-31.34 49 -30.68 49 -30 49 C-29.62875 47.9790625 -29.62875 47.9790625 -29.25 46.9375 C-28.05178335 44.12169087 -26.60818028 41.57122949 -25.05859375 38.9375 C-23.95485026 36.91736431 -23.07156132 34.87478257 -22.1875 32.75 C-20.14109593 27.9967985 -17.43411524 23.79004773 -14.5859375 19.48046875 C-13.23183992 17.36260678 -12.06938102 15.27111118 -11 13 C-10.34 13 -9.68 13 -9 13 C-8.9175 12.05125 -8.835 11.1025 -8.75 10.125 C-8.37875 8.578125 -8.37875 8.578125 -8 7 C-6 5.8125 -6 5.8125 -4 5 C-3.67 4.01 -3.34 3.02 -3 2 C-2.01 2 -1.02 2 0 2 C0 1.34 0 0.68 0 0 Z " fill="#070707" transform="translate(247,60)"/>
<path d="M0 0 C12.87180443 -0.10644607 25.74035887 -0.10810261 38.61187744 0.02813721 C41.61187744 6.65313721 41.61187744 6.65313721 41.61187744 10.02813721 C42.27187744 10.02813721 42.93187744 10.02813721 43.61187744 10.02813721 C43.61187744 10.68813721 43.61187744 11.34813721 43.61187744 12.02813721 C44.27187744 12.02813721 44.93187744 12.02813721 45.61187744 12.02813721 C45.61187744 13.34813721 45.61187744 14.66813721 45.61187744 16.02813721 C46.27187744 16.02813721 46.93187744 16.02813721 47.61187744 16.02813721 C47.94187744 17.34813721 48.27187744 18.66813721 48.61187744 20.02813721 C49.27187744 20.02813721 49.93187744 20.02813721 50.61187744 20.02813721 C51.61671948 21.98399046 52.61561549 23.94289958 53.61187744 25.90313721 C54.16875244 26.99368408 54.72562744 28.08423096 55.29937744 29.20782471 C56.61187744 32.02813721 56.61187744 32.02813721 56.61187744 34.02813721 C57.27187744 34.02813721 57.93187744 34.02813721 58.61187744 34.02813721 C59.61671948 35.98399046 60.61561549 37.94289958 61.61187744 39.90313721 C62.16875244 40.99368408 62.72562744 42.08423096 63.29937744 43.20782471 C64.61187744 46.02813721 64.61187744 46.02813721 64.61187744 48.02813721 C65.27187744 48.02813721 65.93187744 48.02813721 66.61187744 48.02813721 C66.61187744 49.01813721 66.61187744 50.00813721 66.61187744 51.02813721 C67.27187744 51.02813721 67.93187744 51.02813721 68.61187744 51.02813721 C68.84261963 51.56180908 69.07336182 52.09548096 69.31109619 52.64532471 C71.54880237 57.75755464 73.9561259 62.73302903 76.56109619 67.66876221 C77.61187744 70.02813721 77.61187744 70.02813721 78.13140869 72.76251221 C78.28996338 73.51016846 78.44851807 74.25782471 78.61187744 75.02813721 C79.27187744 75.35813721 79.93187744 75.68813721 80.61187744 76.02813721 C81.27187744 76.35813721 81.93187744 76.68813721 82.61187744 77.02813721 C83.36187744 79.65313721 83.36187744 79.65313721 83.61187744 82.02813721 C84.27187744 82.02813721 84.93187744 82.02813721 85.61187744 82.02813721 C86.60117205 83.89781326 87.57788213 85.77415098 88.54937744 87.65313721 C89.09465088 88.69727783 89.63992432 89.74141846 90.20172119 90.81719971 C91.57857461 93.95230638 92.2102996 96.64268353 92.61187744 100.02813721 C93.27187744 100.02813721 93.93187744 100.02813721 94.61187744 100.02813721 C94.61187744 100.68813721 94.61187744 101.34813721 94.61187744 102.02813721 C95.27187744 102.02813721 95.93187744 102.02813721 96.61187744 102.02813721 C97.02179932 102.79899658 97.43172119 103.56985596 97.85406494 104.36407471 C98.39289307 105.36696533 98.93172119 106.36985596 99.48687744 107.40313721 C100.02054932 108.40087158 100.55422119 109.39860596 101.10406494 110.42657471 C102.49389124 113.08162116 102.49389124 113.08162116 104.61187744 115.02813721 C106.81438737 115.48820066 106.81438737 115.48820066 109.23687744 115.65313721 C110.05414307 115.72790283 110.87140869 115.80266846 111.71343994 115.87969971 C112.33992432 115.92868408 112.96640869 115.97766846 113.61187744 116.02813721 C113.61187744 115.36813721 113.61187744 114.70813721 113.61187744 114.02813721 C114.60187744 114.02813721 115.59187744 114.02813721 116.61187744 114.02813721 C116.61187744 113.36813721 116.61187744 112.70813721 116.61187744 112.02813721 C117.27187744 112.02813721 117.93187744 112.02813721 118.61187744 112.02813721 C119.17261575 103.52233836 119.17261575 103.52233836 115.61187744 96.02813721 C115.61187744 95.03813721 115.61187744 94.04813721 115.61187744 93.02813721 C114.95187744 93.02813721 114.29187744 93.02813721 113.61187744 93.02813721 C113.28187744 91.04813721 112.95187744 89.06813721 112.61187744 87.02813721 C111.95187744 87.02813721 111.29187744 87.02813721 110.61187744 87.02813721 C110.34633057 86.48544189 110.08078369 85.94274658 109.80718994 85.38360596 C109.45398682 84.66817627 109.10078369 83.95274658 108.73687744 83.21563721 C108.21480713 82.15409424 108.21480713 82.15409424 107.68218994 81.07110596 C106.54622884 78.81567302 106.54622884 78.81567302 104.61187744 76.02813721 C104.61187744 75.03813721 104.61187744 74.04813721 104.61187744 73.02813721 C103.95187744 73.02813721 103.29187744 73.02813721 102.61187744 73.02813721 C99.61187744 67.27813721 99.61187744 67.27813721 99.61187744 65.02813721 C98.62187744 64.69813721 97.63187744 64.36813721 96.61187744 64.02813721 C95.22515869 61.59454346 95.22515869 61.59454346 93.92437744 58.59063721 C93.48738525 57.60192627 93.05039307 56.61321533 92.60015869 55.59454346 C91.61187744 53.02813721 91.61187744 53.02813721 91.61187744 51.02813721 C90.97250244 50.82188721 90.33312744 50.61563721 89.67437744 50.40313721 C87.61187744 49.02813721 87.61187744 49.02813721 86.86187744 45.90313721 C86.77937744 44.95438721 86.69687744 44.00563721 86.61187744 43.02813721 C85.95187744 43.02813721 85.29187744 43.02813721 84.61187744 43.02813721 C84.24836182 42.08454346 84.24836182 42.08454346 83.87750244 41.12188721 C82.2021823 36.84337731 80.48747626 32.66723209 78.36187744 28.59063721 C76.61187744 25.02813721 76.61187744 25.02813721 76.61187744 22.02813721 C75.95187744 22.02813721 75.29187744 22.02813721 74.61187744 22.02813721 C70.28408407 18.37656155 68.81341546 14.43505827 67.61187744 9.02813721 C66.95187744 9.02813721 66.29187744 9.02813721 65.61187744 9.02813721 C64.62187744 4.57313721 64.62187744 4.57313721 63.61187744 0.02813721 C71.86187744 0.02813721 80.11187744 0.02813721 88.61187744 0.02813721 C89.60187744 2.50313721 89.60187744 2.50313721 90.61187744 5.02813721 C91.27187744 5.02813721 91.93187744 5.02813721 92.61187744 5.02813721 C92.75883057 5.56180908 92.90578369 6.09548096 93.05718994 6.64532471 C94.33026437 10.87427309 95.79800844 14.54865157 98.17437744 18.27813721 C102.47132173 25.11904353 105.70626705 32.48092957 109.13140869 39.78204346 C111.7792459 45.42033104 114.58121927 50.97089104 117.43218994 56.50860596 C118.61187744 59.02813721 118.61187744 59.02813721 118.61187744 61.02813721 C119.27187744 61.02813721 119.93187744 61.02813721 120.61187744 61.02813721 C120.94058838 61.90212158 120.94058838 61.90212158 121.27593994 62.79376221 C123.6275101 68.8734314 126.37392127 74.61137785 129.44000244 80.36407471 C130.61187744 83.02813721 130.61187744 83.02813721 130.61187744 87.02813721 C131.27187744 87.02813721 131.93187744 87.02813721 132.61187744 87.02813721 C133.04500244 87.98719971 133.04500244 87.98719971 133.48687744 88.96563721 C134.44011195 91.180198 134.44011195 91.180198 136.61187744 92.02813721 C137.24468994 94.31329346 137.24468994 94.31329346 137.73687744 97.09063721 C137.90445557 98.00973877 138.07203369 98.92884033 138.24468994 99.87579346 C138.36586182 100.58606689 138.48703369 101.29634033 138.61187744 102.02813721 C139.27187744 102.02813721 139.93187744 102.02813721 140.61187744 102.02813721 C141.95555137 104.43955202 143.28690259 106.85647709 144.61187744 109.27813721 C144.99343994 109.96005127 145.37500244 110.64196533 145.76812744 111.34454346 C146.12906494 112.00841064 146.49000244 112.67227783 146.86187744 113.35626221 C147.19703369 113.96373291 147.53218994 114.57120361 147.87750244 115.19708252 C148.61187744 117.02813721 148.61187744 117.02813721 148.61187744 121.02813721 C149.27187744 121.02813721 149.93187744 121.02813721 150.61187744 121.02813721 C150.94187744 122.67813721 151.27187744 124.32813721 151.61187744 126.02813721 C152.27187744 126.02813721 152.93187744 126.02813721 153.61187744 126.02813721 C155.64623275 129.7577886 156.61187744 131.69718762 156.61187744 136.02813721 C157.27187744 136.02813721 157.93187744 136.02813721 158.61187744 136.02813721 C158.94187744 137.67813721 159.27187744 139.32813721 159.61187744 141.02813721 C63.25187744 141.35813721 -33.10812256 141.68813721 -132.38812256 142.02813721 C-132.38812256 140.37813721 -132.38812256 138.72813721 -132.38812256 137.02813721 C-131.72812256 137.02813721 -131.06812256 137.02813721 -130.38812256 137.02813721 C-130.14062256 136.38876221 -129.89312256 135.74938721 -129.63812256 135.09063721 C-127.98000684 131.0282537 -126.18456415 127.03088814 -124.38812256 123.02813721 C-123.72812256 123.02813721 -123.06812256 123.02813721 -122.38812256 123.02813721 C-122.26437256 122.10001221 -122.14062256 121.17188721 -122.01312256 120.21563721 C-121.38812256 117.02813721 -121.38812256 117.02813721 -119.38812256 114.02813721 C-118.72812256 114.02813721 -118.06812256 114.02813721 -117.38812256 114.02813721 C-115.72323074 110.10374934 -114.51608219 106.13713302 -113.38812256 102.02813721 C-112.72812256 102.02813721 -112.06812256 102.02813721 -111.38812256 102.02813721 C-111.38812256 101.03813721 -111.38812256 100.04813721 -111.38812256 99.02813721 C-110.72812256 99.02813721 -110.06812256 99.02813721 -109.38812256 99.02813721 C-109.14062256 97.99688721 -108.89312256 96.96563721 -108.63812256 95.90313721 C-107.70216055 92.00329552 -105.94760576 89.10949484 -103.38812256 86.02813721 C-100.58606109 85.4112245 -98.62223162 85.21672611 -95.8192749 85.27105713 C-95.06066162 85.26203369 -94.30204834 85.25301025 -93.52044678 85.24371338 C-91.00428183 85.22066902 -88.49023147 85.23975262 -85.97406006 85.25860596 C-84.20358761 85.24987747 -82.43312686 85.23838005 -80.66268921 85.22425842 C-75.98054566 85.19378785 -71.29908344 85.19830171 -66.61688232 85.21087646 C-61.9533198 85.21865638 -57.28991672 85.19862345 -52.62640381 85.17852783 C-50.79973356 85.17079352 -48.97306323 85.16307757 -47.14639282 85.15538025 C-45.802362 85.14961251 -45.802362 85.14961251 -44.43117905 85.14372826 C-41.72372071 85.13360469 -39.01627947 85.12775954 -36.30880737 85.12269592 C-25.66473716 85.09621014 -15.05542164 84.86790073 -4.42108154 84.38085938 C7.79554639 83.84124599 20.01096379 83.91974024 32.23687744 83.96563721 C34.62359523 83.97067385 37.01031407 83.97523284 39.39703369 83.97930908 C45.13534202 83.99011669 50.8735973 84.00725555 56.61187744 84.02813721 C56.28187744 77.75813721 55.95187744 71.48813721 55.61187744 65.02813721 C7.43187744 65.02813721 -40.74812256 65.02813721 -90.38812256 65.02813721 C-88.40812256 60.73813721 -86.42812256 56.44813721 -84.38812256 52.02813721 C-83.72812256 52.02813721 -83.06812256 52.02813721 -82.38812256 52.02813721 C-82.29531006 50.82157471 -82.29531006 50.82157471 -82.20062256 49.59063721 C-81.12275262 44.86459211 -78.87220837 41.15300294 -76.38812256 37.02813721 C-75.72812256 37.02813721 -75.06812256 37.02813721 -74.38812256 37.02813721 C-74.34687256 36.12063721 -74.30562256 35.21313721 -74.26312256 34.27813721 C-73.43874951 28.47168359 -70.63772206 22.85306949 -67.38812256 18.02813721 C-65.18890381 17.17657471 -65.18890381 17.17657471 -63.38812256 17.02813721 C-63.29531006 15.82157471 -63.29531006 15.82157471 -63.20062256 14.59063721 C-62.10459036 9.78495757 -60.70629097 5.75555585 -57.38812256 2.02813721 C-53.81213493 0.64924522 -50.36560538 0.70171184 -46.56390381 0.71173096 C-45.48478226 0.67998276 -44.40566071 0.64823456 -43.2938385 0.61552429 C-39.7622554 0.52278812 -36.23326325 0.49342516 -32.70062256 0.46563721 C-30.27069857 0.41519843 -27.84084405 0.36129931 -25.41107178 0.30401611 C-16.94105522 0.12301487 -8.47143264 0.07035237 0 0 Z " fill="#FBFBFB" transform="translate(258.38812255859375,260.97186279296875)"/>
<path d="M0 0 C0.99 0 1.98 0 3 0 C3.92734408 1.85468816 4.85397328 3.7097366 5.77734375 5.56640625 C6.63221798 7.26796103 7.50054041 8.96279586 8.37890625 10.65234375 C9.05759766 11.96912109 9.05759766 11.96912109 9.75 13.3125 C10.17796875 14.13363281 10.6059375 14.95476562 11.046875 15.80078125 C12 18 12 18 12 21 C12.66 21 13.32 21 14 21 C14.4125 21.83660156 14.825 22.67320312 15.25 23.53515625 C18.41889184 29.92245387 21.63804525 36.27442985 25 42.5625 C25.495 43.48929565 25.495 43.48929565 26 44.43481445 C27.66684103 47.54508447 29.35216329 50.64389627 31.0625 53.73046875 C31.38863281 54.32335693 31.71476562 54.91624512 32.05078125 55.52709961 C32.94548839 57.15105751 33.84751069 58.770979 34.75 60.390625 C36 63 36 63 36 66 C31.74195184 66.80262315 27.68250639 67.14634719 23.35205078 67.20532227 C22.05115509 67.22526749 20.7502594 67.24521271 19.40994263 67.26576233 C18.0050671 67.28274159 16.60019035 67.29962057 15.1953125 67.31640625 C13.74656616 67.33699997 12.2978255 67.35799704 10.84909058 67.37937927 C7.05160142 67.43435047 3.2540603 67.48386886 -0.54351807 67.53222656 C-4.42489195 67.58262478 -8.30619116 67.63821484 -12.1875 67.69335938 C-19.79160328 67.80063535 -27.39576901 67.90214705 -35 68 C-33.96513719 62.40510933 -31.65854533 57.99837617 -29 53 C-28.43152344 51.92685547 -28.43152344 51.92685547 -27.8515625 50.83203125 C-25.27752131 46.13876065 -25.27752131 46.13876065 -23 45 C-21.75821288 42.59843058 -20.60816046 40.21206362 -19.5 37.75 C-19.19191406 37.08097656 -18.88382813 36.41195312 -18.56640625 35.72265625 C-17.29560838 32.94653557 -16.06980493 30.18059382 -14.96875 27.33203125 C-13.87136223 24.69033569 -12.50361627 22.36959931 -11 19.9375 C-9.5400637 17.56875335 -8.12757087 15.26968106 -6.9375 12.75390625 C-6 11 -6 11 -4 10 C-3.12884713 7.91918209 -3.12884713 7.91918209 -2.4375 5.5 C-1.09111617 1.09111617 -1.09111617 1.09111617 0 0 Z " fill="#F8F8F8" transform="translate(249,174)"/>
<path d="M0 0 C0.33 0.66 0.66 1.32 1 2 C0.67 2.99 0.34 3.98 0 5 C94.71 5 189.42 5 287 5 C287.33 4.01 287.66 3.02 288 2 C288.33 3.65 288.66 5.3 289 7 C192.64 7.33 96.28 7.66 -3 8 C-3 6.35 -3 4.7 -3 3 C-2.34 3 -1.68 3 -1 3 C-0.67 2.01 -0.34 1.02 0 0 Z " fill="#B8B8B8" transform="translate(129,395)"/>
<path d="M0 0 C2.38671779 0.00503664 4.77343663 0.00959564 7.16015625 0.01367188 C12.89846133 0.02447948 18.63672536 0.04103804 24.375 0.0625 C21.33968572 2.08604285 20.58655524 2.33172653 17.14762878 2.47285461 C15.84852428 2.53015763 15.84852428 2.53015763 14.52317524 2.58861828 C13.09474183 2.63430179 13.09474183 2.63430179 11.63745117 2.6809082 C10.62464931 2.71864255 9.61184744 2.7563769 8.56835461 2.79525471 C-3.80626442 3.20750163 -16.18565691 3.18306698 -28.565588 3.17003441 C-32.92460323 3.16632532 -37.28353576 3.1756863 -41.64253235 3.18782043 C-42.38538552 3.18984236 -43.12823868 3.19186429 -43.89360255 3.19394749 C-45.40863492 3.19811292 -46.9236672 3.20231564 -48.43869936 3.20655501 C-58.54683392 3.23452287 -68.65476972 3.25465459 -78.76293945 3.23754883 C-85.64300587 3.22600334 -92.52268416 3.2355114 -99.4026807 3.26960641 C-103.02669475 3.28673021 -106.65000623 3.29309174 -110.27402306 3.273489 C-114.29219199 3.25192981 -118.30878055 3.27666402 -122.3269043 3.30541992 C-123.52003738 3.29162796 -124.71317047 3.277836 -125.94245911 3.2636261 C-128.96009262 3.30570205 -131.68554668 3.37914211 -134.625 4.0625 C-137.3613573 6.85378088 -137.3613573 6.85378088 -138.625 10.0625 C-139.615 10.5575 -139.615 10.5575 -140.625 11.0625 C-139.97830586 9.71936601 -139.30596422 8.38858822 -138.625 7.0625 C-138.25927383 6.203078 -137.89354767 5.34365601 -137.51673889 4.45819092 C-135.625 2.0625 -135.625 2.0625 -132.32615662 1.42999268 C-130.94096663 1.40078638 -129.55503477 1.39919212 -128.16967773 1.41894531 C-127.41121048 1.4100679 -126.65274323 1.40119049 -125.87129211 1.39204407 C-123.34995345 1.36825965 -120.8300011 1.37959712 -118.30859375 1.390625 C-116.53669244 1.38002977 -114.76480364 1.36711197 -112.99293518 1.35198975 C-108.30266299 1.31766473 -103.61280496 1.31240774 -98.92242432 1.31390381 C-91.51721362 1.31026892 -84.11205753 1.25802936 -76.70697784 1.21701241 C-73.99514739 1.20312015 -71.28331976 1.1927667 -68.57147217 1.18284607 C-57.91871 1.13690877 -47.29784774 0.89700961 -36.65480042 0.4120636 C-24.43924093 -0.12375298 -12.22470483 -0.04589243 0 0 Z " fill="#A5A5A5" transform="translate(290.625,344.9375)"/>
<path d="M0 0 C0.33 0.66 0.66 1.32 1 2 C0.67 2.66 0.34 3.32 0 4 C6.00593685 3.87941599 12.01178219 3.75509557 18.01757812 3.62768555 C20.0497847 3.58505519 22.08201096 3.5433504 24.11425781 3.50268555 C38.42249939 3.21552807 52.7067066 2.71580645 67 2 C67.33 1.34 67.66 0.68 68 0 C68.495 1.98 68.495 1.98 69 4 C64.74195184 4.80262315 60.68250639 5.14634719 56.35205078 5.20532227 C55.05115509 5.22526749 53.7502594 5.24521271 52.40994263 5.26576233 C51.0050671 5.28274159 49.60019035 5.29962057 48.1953125 5.31640625 C46.74656616 5.33699997 45.2978255 5.35799704 43.84909058 5.37937927 C40.05160142 5.43435047 36.2540603 5.48386886 32.45648193 5.53222656 C28.57510805 5.58262478 24.69380884 5.63821484 20.8125 5.69335938 C13.20839672 5.80063535 5.60423099 5.90214705 -2 6 C-1.125 1.125 -1.125 1.125 0 0 Z " fill="#9F9F9F" transform="translate(216,236)"/>
<path d="M0 0 C14.52 0 29.04 0 44 0 C43.67 1.32 43.34 2.64 43 4 C42.505 3.01 42.505 3.01 42 2 C40.21722656 2.01740234 40.21722656 2.01740234 38.3984375 2.03515625 C25.57055278 2.11882774 12.80835188 1.69075449 0 1 C0 0.67 0 0.34 0 0 Z " fill="#BDBDBD" transform="translate(133,263)"/>
<path d="M0 0 C0.33 1.32 0.66 2.64 1 4 C0.34 4 -0.32 4 -1 4 C-1.33 5.98 -1.66 7.96 -2 10 C-2.66 10 -3.32 10 -4 10 C-4 11.32 -4 12.64 -4 14 C-3.21625 13.79375 -2.4325 13.5875 -1.625 13.375 C3.18440843 12.87747499 7.33275932 13.88392071 12 15 C12 15.33 12 15.66 12 16 C6.06 16 0.12 16 -6 16 C-5.67 13.69 -5.34 11.38 -5 9 C-4.34 9 -3.68 9 -3 9 C-2.67 7.02 -2.34 5.04 -2 3 C-1.34 3 -0.68 3 0 3 C0 2.01 0 1.02 0 0 Z " fill="#4F4F4F" transform="translate(139,247)"/>
<path d="M0 0 C6.87782435 1.11215883 13.88030443 2.525991 20 6 C20.33 6.99 20.66 7.98 21 9 C20.34 9.66 19.68 10.32 19 11 C18.67 9.68 18.34 8.36 18 7 C14.7 6.34 11.4 5.68 8 5 C8 4.34 8 3.68 8 3 C5.69 2.67 3.38 2.34 1 2 C1 2.66 1 3.32 1 4 C0.34 4 -0.32 4 -1 4 C-1.33 4.99 -1.66 5.98 -2 7 C-2.33 6.34 -2.66 5.68 -3 5 C-1.5625 2.375 -1.5625 2.375 0 0 Z " fill="#676767" transform="translate(90,335)"/>
<path d="M0 0 C1.24546405 2.49092811 0.7767578 3.41080733 0 6 C-0.66 6 -1.32 6 -2 6 C-2.33 7.98 -2.66 9.96 -3 12 C-3.66 12 -4.32 12 -5 12 C-5 12.99 -5 13.98 -5 15 C-5.66 15 -6.32 15 -7 15 C-5.34292168 9.35086937 -3.52237988 4.73699363 0 0 Z " fill="#565656" transform="translate(113,380)"/>
<path d="M0 0 C1.24546405 2.49092811 0.7767578 3.41080733 0 6 C-0.66 6 -1.32 6 -2 6 C-2.99 8.97 -3.98 11.94 -5 15 C-5.66 15 -6.32 15 -7 15 C-5.67231025 9.20644472 -3.33455096 4.9000081 0 0 Z " fill="#9E9E9E" transform="translate(240,191)"/>
<path d="M0 0 C0.66 0 1.32 0 2 0 C2 0.99 2 1.98 2 3 C2.66 3 3.32 3 4 3 C4 3.66 4 4.32 4 5 C4.66 5 5.32 5 6 5 C6.33 7.31 6.66 9.62 7 12 C4 10 4 10 3.3125 6.875 C3.209375 5.92625 3.10625 4.9775 3 4 C2.34 4 1.68 4 1 4 C0.67 2.68 0.34 1.36 0 0 Z " fill="#898989" transform="translate(342,300)"/>
<path d="M0 0 C0.66 1.65 1.32 3.3 2 5 C0.35 4.67 -1.3 4.34 -3 4 C-3 4.66 -3 5.32 -3 6 C-3.66 6 -4.32 6 -5 6 C-4.625 3.5625 -4.625 3.5625 -4 1 C-2 0 -2 0 0 0 Z " fill="#969696" transform="translate(252,91)"/>
<path d="M0 0 C1.24546405 2.49092811 0.7767578 3.41080733 0 6 C-0.66 6 -1.32 6 -2 6 C-2.28875 6.639375 -2.5775 7.27875 -2.875 7.9375 C-4 10 -4 10 -6 11 C-4.18690997 7.22272911 -2.0926741 3.62730178 0 0 Z " fill="#717171" transform="translate(232,80)"/>
<path d="M0 0 C0.99 0.495 0.99 0.495 2 1 C2 1.99 2 2.98 2 4 C2.66 4 3.32 4 4 4 C4.33 5.65 4.66 7.3 5 9 C4.34 9 3.68 9 3 9 C3 8.34 3 7.68 3 7 C2.34 7 1.68 7 1 7 C0.67 4.69 0.34 2.38 0 0 Z " fill="#767676" transform="translate(377,275)"/>
</svg>
